<?xml version="1.0" encoding="UTF-8"?>
<svg id="Layer_1" xmlns="http://www.w3.org/2000/svg" version="1.1" xmlns:xlink="http://www.w3.org/1999/xlink" viewBox="0 0 256 256">
  <!-- Generator: Adobe Illustrator 30.0.0, SVG Export Plug-In . SVG Version: 2.1.1 Build 21)  -->
  <defs>
    <style>
      .st0 {
        font-family: TASAExplorer-Bold, 'TASA Explorer';
        font-size: 111px;
        font-weight: 700;
      }

      .st1 {
        fill: url(#linear-gradient);
      }
    </style>
    <linearGradient id="linear-gradient" x1="26.8" y1="128.35" x2="224.15" y2="128.35" gradientUnits="userSpaceOnUse">
      <stop offset="0" stop-color="#00c4ff"/>
      <stop offset=".07" stop-color="#18a0fb"/>
      <stop offset=".15" stop-color="#307ef8"/>
      <stop offset=".23" stop-color="#4364f6"/>
      <stop offset=".32" stop-color="#5051f4"/>
      <stop offset=".41" stop-color="#5845f3"/>
      <stop offset=".5" stop-color="#5b42f3"/>
      <stop offset="1" stop-color="#b445ff"/>
    </linearGradient>
  </defs>
  <text class="st0" transform="translate(26.13 120.61)"><tspan x="0" y="0">ABd</tspan><tspan x="52.23" y="92.4">IA</tspan></text>
  <g>
    <path class="st1" d="M26.8,120.61l21.42-75.48h24.53l21.76,75.48h-16.32l-17.76-67.6h-.22l-17.98,67.6h-15.43ZM40.01,100.85v-12.65h40.63v12.65h-40.63Z"/>
    <path class="st1" d="M102.72,120.61V45.13h26.86c4.81,0,9.05.72,12.71,2.16s6.51,3.57,8.55,6.38c2.03,2.81,3.05,6.22,3.05,10.21s-1.18,7.62-3.55,10.43c-2.37,2.81-5.74,4.63-10.1,5.44v.22c5.11.96,9.06,3.13,11.88,6.49,2.81,3.37,4.22,7.68,4.22,12.93,0,4.37-1.09,8.14-3.28,11.32-2.18,3.18-5.2,5.62-9.05,7.33-3.85,1.7-8.4,2.55-13.65,2.55h-27.64ZM118.37,75.88h9.99c3.11,0,5.66-.79,7.66-2.39,2-1.59,3-3.9,3-6.94s-1-5.42-3-6.94c-2-1.52-4.55-2.28-7.66-2.28h-9.99v18.54ZM118.37,108.4h10.77c3.33,0,6.05-.87,8.16-2.61,2.11-1.74,3.16-4.31,3.16-7.71s-1.05-6.1-3.16-7.88c-2.11-1.78-4.83-2.66-8.16-2.66h-10.77v20.87Z"/>
    <path class="st1" d="M189.85,121.94c-4.96,0-9.43-1.22-13.43-3.66s-7.14-5.86-9.43-10.27c-2.29-4.4-3.44-9.49-3.44-15.26s1.17-11.1,3.5-15.54,5.51-7.92,9.55-10.43c4.03-2.51,8.53-3.77,13.49-3.77,4.14,0,7.83.87,11.04,2.61,3.22,1.74,5.68,4.27,7.38,7.6h.22v-29.53h15.43v76.92h-14.65v-10.66h-.22c-1.55,3.85-4.05,6.81-7.49,8.88-3.44,2.07-7.42,3.11-11.93,3.11ZM194.07,109.18c4.44,0,8.06-1.55,10.88-4.66,2.81-3.11,4.22-7.14,4.22-12.1s-1.41-8.88-4.22-11.99c-2.81-3.11-6.44-4.66-10.88-4.66s-8.03,1.52-10.77,4.55c-2.74,3.04-4.11,7.07-4.11,12.1s1.39,8.99,4.16,12.1c2.78,3.11,6.34,4.66,10.71,4.66Z"/>
    <path class="st1" d="M85.68,137.53h15.76v75.48h-15.76v-75.48Z"/>
    <path class="st1" d="M109.66,213.01l21.42-75.48h24.53l21.76,75.48h-16.32l-17.76-67.6h-.22l-17.98,67.6h-15.43ZM122.87,193.25v-12.65h40.63v12.65h-40.63Z"/>
  </g>
</svg>